<?xml version="1.0" encoding="utf-8"?>
<!-- Generator: Adobe Illustrator 16.0.0, SVG Export Plug-In . SVG Version: 6.00 Build 0)  -->
<!DOCTYPE svg PUBLIC "-//W3C//DTD SVG 1.1//EN" "http://www.w3.org/Graphics/SVG/1.1/DTD/svg11.dtd">
<svg version="1.1"
	 id="svg2" sodipodi:docname="google-play-badge.svg" inkscape:version="0.91 r13725" xmlns:cc="http://creativecommons.org/ns#" xmlns:dc="http://purl.org/dc/elements/1.1/" xmlns:sodipodi="http://sodipodi.sourceforge.net/DTD/sodipodi-0.dtd" xmlns:svg="http://www.w3.org/2000/svg" xmlns:inkscape="http://www.inkscape.org/namespaces/inkscape" xmlns:rdf="http://www.w3.org/1999/02/22-rdf-syntax-ns#"
	 xmlns="http://www.w3.org/2000/svg" xmlns:xlink="http://www.w3.org/1999/xlink" x="0px" y="0px" width="135.717px"
	 height="40.02px" viewBox="0 0 135.717 40.02" enable-background="new 0 0 135.717 40.02" xml:space="preserve">
<pattern  x="-327.642" y="326.51" width="124" height="48" patternUnits="userSpaceOnUse" id="pattern134" viewBox="0 -48 124 48" overflow="visible">
	<g>
		<polygon fill="none" points="0,0 124,0 124,-48 0,-48 		"/>
		<g id="g136_1_">
		</g>
		<g id="g138_1_">
			<g>
				<defs>
					<rect id="SVGID_1_" y="-48" width="124" height="48"/>
				</defs>
				<clipPath id="SVGID_2_">
					<use xlink:href="#SVGID_1_"  overflow="visible"/>
				</clipPath>
				<g id="g140_1_" clip-path="url(#SVGID_2_)">
					<g id="g142_1_">
						<path id="path144_1_" d="M29.625-20.695l-11.613,6.598c-0.649,0.371-1.231,0.344-1.606,0.008l-0.058,0.062l0.058,0.059
							c0.375,0.336,0.957,0.359,1.606-0.012l11.687-6.641L29.625-20.695z"/>
					</g>
				</g>
			</g>
		</g>
	</g>
</pattern>
<pattern  x="-327.642" y="326.51" width="124" height="48" patternUnits="userSpaceOnUse" id="pattern182" viewBox="0 -48 124 48" overflow="visible">
	<g>
		<polygon fill="none" points="0,0 124,0 124,-48 0,-48 		"/>
		<g id="g184_1_">
		</g>
		<g id="g186_1_">
			<g>
				<defs>
					<rect id="SVGID_3_" y="-48" width="124" height="48"/>
				</defs>
				<clipPath id="SVGID_4_">
					<use xlink:href="#SVGID_3_"  overflow="visible"/>
				</clipPath>
				<g id="g188_1_" clip-path="url(#SVGID_4_)">
					<g id="g190_1_">
						<path id="path192_1_" d="M16.348-14.145c-0.235-0.246-0.371-0.629-0.371-1.125v0.117c0,0.496,0.136,0.879,0.371,1.125
							l0.058-0.062L16.348-14.145z"/>
					</g>
				</g>
			</g>
		</g>
	</g>
</pattern>
<pattern  x="-327.642" y="326.51" width="124" height="48" patternUnits="userSpaceOnUse" id="pattern230" viewBox="0 -48 124 48" overflow="visible">
	<g>
		<polygon fill="none" points="0,0 124,0 124,-48 0,-48 		"/>
		<g id="g232_1_">
		</g>
		<g id="g234_1_">
			<g>
				<defs>
					<rect id="SVGID_5_" y="-48" width="124" height="48"/>
				</defs>
				<clipPath id="SVGID_6_">
					<use xlink:href="#SVGID_5_"  overflow="visible"/>
				</clipPath>
				<g id="g236_1_" clip-path="url(#SVGID_6_)">
					<g id="g238_1_">
						<path id="path240_1_" d="M33.613-22.961l-3.988,2.266l0.074,0.074l3.914-2.223c0.559-0.316,0.836-0.734,0.836-1.156
							C34.402-23.621,34.117-23.25,33.613-22.961z"/>
					</g>
				</g>
			</g>
		</g>
	</g>
</pattern>
<sodipodi:namedview  inkscape:pageopacity="0" inkscape:pageshadow="2" inkscape:window-height="705" inkscape:current-layer="g10" inkscape:window-maximized="1" inkscape:window-width="1366" inkscape:window-y="-8" inkscape:window-x="-8" id="namedview4" borderopacity="1" bordercolor="#666666" objecttolerance="10" guidetolerance="10" showgrid="false" gridtolerance="10" pagecolor="#ffffff" inkscape:zoom="7.6276974" inkscape:cx="93.965168" inkscape:cy="29.61582">
	</sodipodi:namedview>
<g id="g10" transform="matrix(1.25,0,0,-1.25,-9.4247625,49.85025)" inkscape:groupmode="layer" inkscape:label="google-play-badge">
	<g id="g12" transform="matrix(1.0023923,0,0,0.99072975,-0.29664807,0)">
		<path id="path14" inkscape:connector-curvature="0" d="M112,8H12c-2.199,0-4,1.801-4,4v24c0,2.199,1.801,4,4,4H112
			c2.199,0,4-1.801,4-4V12C116,9.801,114.199,8,112,8z"/>
		<path id="path16" inkscape:connector-curvature="0" fill="#A6A6A6" d="M112,39.359c1.852,0,3.358-1.507,3.358-3.359V12
			c0-1.852-1.507-3.359-3.358-3.359H12c-1.852,0-3.358,1.507-3.358,3.359v24c0,1.852,1.507,3.359,3.358,3.359H112 M112,40H12
			c-2.199,0-4-1.801-4-4V12c0-2.199,1.801-4,4-4H112c2.199,0,4,1.801,4,4v24C116,38.199,114.199,40,112,40z"/>
		<g id="g18" transform="matrix(1,0,0,-1,0,48)">
			
				<path id="path20" inkscape:connector-curvature="0" fill="#FFFFFF" stroke="#FFFFFF" stroke-width="0.16" stroke-miterlimit="10" d="
				M45.934,16.195c0,0.668-0.2,1.203-0.594,1.602c-0.454,0.473-1.044,0.711-1.766,0.711c-0.691,0-1.281-0.242-1.765-0.719
				c-0.485-0.484-0.727-1.078-0.727-1.788c0-0.711,0.242-1.305,0.727-1.785c0.484-0.481,1.074-0.723,1.765-0.723
				c0.344,0,0.672,0.071,0.985,0.203c0.312,0.132,0.566,0.312,0.75,0.535l-0.418,0.422c-0.321-0.379-0.758-0.566-1.317-0.566
				c-0.504,0-0.941,0.177-1.312,0.531c-0.367,0.356-0.551,0.817-0.551,1.383c0,0.565,0.184,1.031,0.551,1.386
				c0.371,0.352,0.808,0.531,1.312,0.531c0.535,0,0.985-0.18,1.34-0.535c0.234-0.235,0.367-0.559,0.402-0.973h-1.742v-0.577h2.324
				C45.926,15.957,45.934,16.078,45.934,16.195z"/>
		</g>
		<g id="g22" transform="matrix(1,0,0,-1,0,48)">
			
				<path id="path24" inkscape:connector-curvature="0" fill="#FFFFFF" stroke="#FFFFFF" stroke-width="0.16" stroke-miterlimit="10" d="
				M49.621,14.191h-2.183v1.52h1.969v0.578h-1.969v1.52h2.183v0.589h-2.8v-4.796h2.8V14.191z"/>
		</g>
		<g id="g26" transform="matrix(1,0,0,-1,0,48)">
			
				<path id="path28" inkscape:connector-curvature="0" fill="#FFFFFF" stroke="#FFFFFF" stroke-width="0.16" stroke-miterlimit="10" d="
				M52.223,18.398h-0.618v-4.208h-1.339v-0.588h3.297v0.588h-1.34V18.398z"/>
		</g>
		<g id="g30" transform="matrix(1,0,0,-1,0,48)">
			
				<path id="path32" inkscape:connector-curvature="0" fill="#FFFFFF" stroke="#FFFFFF" stroke-width="0.16" stroke-miterlimit="10" d="
				M55.949,18.398v-4.796h0.616v4.796H55.949z"/>
		</g>
		<g id="g34" transform="matrix(1,0,0,-1,0,48)">
			
				<path id="path36" inkscape:connector-curvature="0" fill="#FFFFFF" stroke="#FFFFFF" stroke-width="0.16" stroke-miterlimit="10" d="
				M59.301,18.398h-0.613v-4.208h-1.344v-0.588h3.301v0.588h-1.344V18.398z"/>
		</g>
		<g id="g38" transform="matrix(1,0,0,-1,0,48)">
			
				<path id="path40" inkscape:connector-curvature="0" fill="#FFFFFF" stroke="#FFFFFF" stroke-width="0.16" stroke-miterlimit="10" d="
				M66.887,17.781c-0.473,0.485-1.059,0.727-1.758,0.727c-0.703,0-1.289-0.242-1.762-0.727C62.895,17.297,62.66,16.703,62.66,16
				c0-0.703,0.235-1.297,0.707-1.781c0.473-0.485,1.059-0.727,1.762-0.727c0.695,0,1.281,0.242,1.754,0.731
				c0.475,0.488,0.711,1.078,0.711,1.777C67.594,16.703,67.359,17.297,66.887,17.781z M63.824,17.379
				c0.356,0.36,0.789,0.539,1.305,0.539c0.512,0,0.949-0.18,1.301-0.539c0.355-0.359,0.535-0.82,0.535-1.378
				c0-0.559-0.18-1.02-0.535-1.379c-0.352-0.359-0.789-0.539-1.301-0.539c-0.516,0-0.949,0.181-1.305,0.539
				c-0.355,0.359-0.535,0.82-0.535,1.379C63.289,16.559,63.469,17.02,63.824,17.379z"/>
		</g>
		<g id="g42" transform="matrix(1,0,0,-1,0,48)">
			
				<path id="path44" inkscape:connector-curvature="0" fill="#FFFFFF" stroke="#FFFFFF" stroke-width="0.16" stroke-miterlimit="10" d="
				M68.461,18.398v-4.796h0.751l2.332,3.73h0.027l-0.027-0.923v-2.807h0.617v4.796h-0.644l-2.442-3.914h-0.027l0.027,0.926v2.989
				H68.461z"/>
		</g>
		<path id="path46" inkscape:connector-curvature="0" fill="#FFFFFF" d="M62.508,22.598c-1.879,0-3.414-1.43-3.414-3.403
			c0-1.957,1.535-3.402,3.414-3.402c1.883,0,3.418,1.445,3.418,3.402C65.926,21.168,64.391,22.598,62.508,22.598z M62.508,17.133
			c-1.031,0-1.918,0.851-1.918,2.062c0,1.227,0.887,2.063,1.918,2.063s1.922-0.836,1.922-2.063
			C64.43,17.984,63.539,17.133,62.508,17.133z M55.059,22.598c-1.883,0-3.414-1.43-3.414-3.403c0-1.957,1.531-3.402,3.414-3.402
			c1.881,0,3.414,1.445,3.414,3.402C58.473,21.168,56.941,22.598,55.059,22.598z M55.059,17.133c-1.032,0-1.922,0.851-1.922,2.062
			c0,1.227,0.89,2.063,1.922,2.063c1.031,0,1.918-0.836,1.918-2.063C56.977,17.984,56.09,17.133,55.059,17.133z M46.195,21.555
			v-1.446h3.453c-0.101-0.808-0.371-1.402-0.785-1.816c-0.504-0.5-1.289-1.055-2.668-1.055c-2.125,0-3.789,1.715-3.789,3.84
			s1.664,3.84,3.789,3.84c1.149,0,1.985-0.449,2.602-1.031l1.019,1.019c-0.864,0.824-2.012,1.457-3.621,1.457
			c-2.914,0-5.363-2.371-5.363-5.285s2.449-5.285,5.363-5.285c1.574,0,2.757,0.516,3.688,1.484c0.952,0.953,1.249,2.293,1.249,3.375
			c0,0.336-0.028,0.645-0.078,0.903H46.195z M82.441,20.434c-0.281,0.761-1.148,2.164-2.914,2.164c-1.75,0-3.207-1.378-3.207-3.403
			c0-1.906,1.442-3.402,3.375-3.402c1.563,0,2.465,0.953,2.836,1.508l-1.16,0.773c-0.387-0.565-0.914-0.941-1.676-0.941
			c-0.757,0-1.3,0.347-1.648,1.031l4.551,1.882L82.441,20.434L82.441,20.434z M77.801,19.301c-0.039,1.312,1.019,1.984,1.777,1.984
			c0.594,0,1.098-0.296,1.266-0.722L77.801,19.301L77.801,19.301z M74.102,16h1.496V26h-1.496V16z M71.652,21.84h-0.051
			c-0.336,0.398-0.977,0.758-1.789,0.758c-1.704,0-3.262-1.496-3.262-3.414c0-1.907,1.558-3.391,3.262-3.391
			c0.812,0,1.453,0.363,1.789,0.773h0.051v-0.488c0-1.301-0.695-2-1.816-2c-0.914,0-1.482,0.66-1.715,1.215L66.82,14.75
			c0.375-0.902,1.368-2.012,3.016-2.012c1.754,0,3.234,1.031,3.234,3.543v6.11h-1.418V21.84z M69.941,17.133
			c-1.031,0-1.894,0.863-1.894,2.051c0,1.199,0.863,2.074,1.894,2.074c1.016,0,1.818-0.875,1.818-2.074
			C71.758,17.996,70.957,17.133,69.941,17.133z M89.445,26h-3.578V16h1.493v3.789h2.086c1.657,0,3.282,1.199,3.282,3.106
			C92.727,24.801,91.098,26,89.445,26z M89.484,21.18h-2.125v3.429h2.125c1.114,0,1.75-0.925,1.75-1.714
			C91.234,22.121,90.598,21.18,89.484,21.18z M98.707,22.617c-1.078,0-2.199-0.476-2.66-1.531l1.324-0.555
			c0.284,0.555,0.809,0.735,1.362,0.735c0.775,0,1.56-0.464,1.571-1.286v-0.105c-0.27,0.156-0.848,0.387-1.559,0.387
			c-1.426,0-2.879-0.785-2.879-2.25c0-1.341,1.168-2.203,2.481-2.203c1.004,0,1.558,0.453,1.906,0.98h0.051v-0.773h1.441v3.836
			C101.746,21.625,100.422,22.617,98.707,22.617z M98.527,17.137c-0.488,0-1.168,0.242-1.168,0.847c0,0.774,0.848,1.071,1.582,1.071
			c0.657,0,0.965-0.144,1.364-0.336C100.188,17.793,99.391,17.137,98.527,17.137z M106.996,22.398l-1.715-4.336h-0.051l-1.773,4.336
			h-1.609l2.664-6.059l-1.52-3.37h1.559l4.105,9.429H106.996z M93.547,16h1.496V26h-1.496V16z"/>
		<g id="g48">
			
				<linearGradient id="path64_1_" gradientUnits="userSpaceOnUse" x1="32.5728" y1="157.2932" x2="15.7895" y2="140.5099" gradientTransform="matrix(1.0024 0 0 -0.9907 -7.2108 170.8022)">
				<stop  offset="0" style="stop-color:#00A0FF"/>
				<stop  offset="0.0066" style="stop-color:#00A1FF"/>
				<stop  offset="0.2601" style="stop-color:#00BEFF"/>
				<stop  offset="0.5122" style="stop-color:#00D2FF"/>
				<stop  offset="0.7604" style="stop-color:#00DFFF"/>
				<stop  offset="1" style="stop-color:#00E3FF"/>
			</linearGradient>
			<path id="path64" inkscape:connector-curvature="0" fill="url(#path64_1_)" d="M16.348,33.969
				c-0.235-0.246-0.371-0.628-0.371-1.124V15.152c0-0.496,0.136-0.879,0.371-1.125l0.058-0.054l9.914,9.91v0.234l-9.914,9.91
				L16.348,33.969z"/>
		</g>
		<g id="g66">
			
				<linearGradient id="path78_1_" gradientUnits="userSpaceOnUse" x1="42.1772" y1="148.1755" x2="17.9826" y2="148.1755" gradientTransform="matrix(1.0024 0 0 -0.9907 -7.2108 170.8022)">
				<stop  offset="0" style="stop-color:#FFE000"/>
				<stop  offset="0.4087" style="stop-color:#FFBD00"/>
				<stop  offset="0.7754" style="stop-color:#FFA500"/>
				<stop  offset="1" style="stop-color:#FF9C00"/>
			</linearGradient>
			<path id="path78" inkscape:connector-curvature="0" fill="url(#path78_1_)" d="M29.621,20.578l-3.301,3.305v0.234l3.305,3.305
				l0.074-0.043l3.914-2.227c1.117-0.632,1.117-1.672,0-2.308l-3.914-2.223L29.621,20.578z"/>
		</g>
		<g id="g80">
			
				<linearGradient id="path88_1_" gradientUnits="userSpaceOnUse" x1="28.3298" y1="153.0598" x2="5.5752" y2="130.3052" gradientTransform="matrix(1.0024 0 0 -0.9907 -7.2108 170.8022)">
				<stop  offset="0" style="stop-color:#FF3A44"/>
				<stop  offset="1" style="stop-color:#C31162"/>
			</linearGradient>
			<path id="path88" inkscape:connector-curvature="0" fill="url(#path88_1_)" d="M29.699,20.621L26.32,24l-9.972-9.973
				c0.371-0.39,0.976-0.437,1.664-0.047L29.699,20.621"/>
		</g>
		<g id="g90">
			
				<linearGradient id="path104_1_" gradientUnits="userSpaceOnUse" x1="14.3406" y1="157.4474" x2="24.5032" y2="147.2849" gradientTransform="matrix(1.0024 0 0 -0.9907 -7.2108 170.8022)">
				<stop  offset="0" style="stop-color:#32A071"/>
				<stop  offset="0.0685" style="stop-color:#2DA771"/>
				<stop  offset="0.4762" style="stop-color:#15CF74"/>
				<stop  offset="0.8009" style="stop-color:#06E775"/>
				<stop  offset="1" style="stop-color:#00F076"/>
			</linearGradient>
			<path id="path104" inkscape:connector-curvature="0" fill="url(#path104_1_)" d="M29.699,27.379L18.012,34.02
				c-0.688,0.386-1.293,0.339-1.664-0.051L26.32,24L29.699,27.379z"/>
		</g>
		<g id="g106">
			<g id="g108">
			</g>
			<defs>
				<filter id="Adobe_OpacityMaskFilter" filterUnits="userSpaceOnUse" x="0" y="-48" width="123.999" height="48">
					<feColorMatrix  type="matrix" values="1 0 0 0 0  0 1 0 0 0  0 0 1 0 0  0 0 0 1 0"/>
				</filter>
			</defs>
			<mask maskUnits="userSpaceOnUse" x="0" y="-48" width="123.999" height="48" id="mask114">
				<g id="g116" filter="url(#Adobe_OpacityMaskFilter)">
					<g>
						<defs>
							<rect id="SVGID_7_" x="-4.701" y="-3.126" width="124" height="48"/>
						</defs>
						<clipPath id="SVGID_8_">
							<use xlink:href="#SVGID_7_"  overflow="visible"/>
						</clipPath>
						<g id="g118">
							<path id="path120" inkscape:connector-curvature="0" clip-path="url(#SVGID_8_)" fill-opacity="0.2" d="M7.818,40.254h98.963
								V1.494H7.818V40.254z"/>
						</g>
					</g>
				</g>
			</mask>
			<g id="g122" mask="url(#mask114)">
				<g id="g124">
				</g>
				<g id="g146">
					<g>
						<defs>
							<rect id="SVGID_9_" x="-15.685" y="-5.722" width="155.37" height="59.444"/>
						</defs>
						<clipPath id="SVGID_10_">
							<use xlink:href="#SVGID_9_"  overflow="visible"/>
						</clipPath>
						<g id="g148" clip-path="url(#SVGID_10_)">
							<g id="g150">
								<pattern  id="path152_1_" xlink:href="#pattern134" patternTransform="matrix(1.253 0 0 -1.2384 1896.5273 -19101.4453)">
								</pattern>
								<path id="path152" inkscape:connector-curvature="0" fill="url(#path152_1_)" d="M0,0H124v48H0V0z"/>
							</g>
						</g>
					</g>
				</g>
			</g>
		</g>
		<g id="g154">
			<g id="g156">
			</g>
			<defs>
				<filter id="Adobe_OpacityMaskFilter_1_" filterUnits="userSpaceOnUse" x="0" y="-48" width="123.999" height="48">
					<feColorMatrix  type="matrix" values="1 0 0 0 0  0 1 0 0 0  0 0 1 0 0  0 0 0 1 0"/>
				</filter>
			</defs>
			<mask maskUnits="userSpaceOnUse" x="0" y="-48" width="123.999" height="48" id="mask162">
				<g id="g164" filter="url(#Adobe_OpacityMaskFilter_1_)">
					<g>
						<defs>
							<rect id="SVGID_11_" x="-4.701" y="-3.126" width="124" height="48"/>
						</defs>
						<clipPath id="SVGID_12_">
							<use xlink:href="#SVGID_11_"  overflow="visible"/>
						</clipPath>
						<g id="g166">
							<path id="path168" inkscape:connector-curvature="0" clip-path="url(#SVGID_12_)" fill-opacity="0.12" d="M7.818,40.254
								h98.963V1.494H7.818V40.254z"/>
						</g>
					</g>
				</g>
			</mask>
			<g id="g170" mask="url(#mask162)">
				<g id="g172">
				</g>
				<g id="g194">
					<g>
						<defs>
							<rect id="SVGID_13_" x="-15.685" y="-5.722" width="155.37" height="59.444"/>
						</defs>
						<clipPath id="SVGID_14_">
							<use xlink:href="#SVGID_13_"  overflow="visible"/>
						</clipPath>
						<g id="g196" clip-path="url(#SVGID_14_)">
							<g id="g198">
								<pattern  id="path200_1_" xlink:href="#pattern182" patternTransform="matrix(1.253 0 0 -1.2384 1896.5273 -19101.4453)">
								</pattern>
								<path id="path200" inkscape:connector-curvature="0" fill="url(#path200_1_)" d="M0,0H124v48H0V0z"/>
							</g>
						</g>
					</g>
				</g>
			</g>
		</g>
		<g id="g202">
			<g id="g204">
			</g>
			<defs>
				<filter id="Adobe_OpacityMaskFilter_2_" filterUnits="userSpaceOnUse" x="0" y="-48" width="123.999" height="48">
					<feColorMatrix  type="matrix" values="1 0 0 0 0  0 1 0 0 0  0 0 1 0 0  0 0 0 1 0"/>
				</filter>
			</defs>
			<mask maskUnits="userSpaceOnUse" x="0" y="-48" width="123.999" height="48" id="mask210">
				<g id="g212" filter="url(#Adobe_OpacityMaskFilter_2_)">
					<g>
						<defs>
							<rect id="SVGID_15_" x="-4.701" y="-3.126" width="124" height="48"/>
						</defs>
						<clipPath id="SVGID_16_">
							<use xlink:href="#SVGID_15_"  overflow="visible"/>
						</clipPath>
						<g id="g214">
							<path id="path216" inkscape:connector-curvature="0" clip-path="url(#SVGID_16_)" fill-opacity="0.12" d="M7.818,40.254
								h98.963V1.494H7.818V40.254z"/>
						</g>
					</g>
				</g>
			</mask>
			<g id="g218" mask="url(#mask210)">
				<g id="g220">
				</g>
				<g id="g242">
					<g>
						<defs>
							<rect id="SVGID_17_" x="-15.685" y="-5.722" width="155.37" height="59.444"/>
						</defs>
						<clipPath id="SVGID_18_">
							<use xlink:href="#SVGID_17_"  overflow="visible"/>
						</clipPath>
						<g id="g244" clip-path="url(#SVGID_18_)">
							<g id="g246">
								<pattern  id="path248_1_" xlink:href="#pattern230" patternTransform="matrix(1.253 0 0 -1.2384 1896.5273 -19101.4453)">
								</pattern>
								<path id="path248" inkscape:connector-curvature="0" fill="url(#path248_1_)" d="M0,0H124v48H0V0z"/>
							</g>
						</g>
					</g>
				</g>
			</g>
		</g>
	</g>
</g>
</svg>
